<svg width="142" height="209" fill="none" xmlns="http://www.w3.org/2000/svg"><path id="body" d="M78.5 67c-16.4-19.6-8.833-52.167-3-66C78.7 1 89.167 12 94 17.5c6-2 16.5-.833 21 0 5.6-8.8 14.667-14.667 18.5-16.5 15.6 38.8 2.5 60.167-6 66 6.8 27.2-1.167 76-6 97 7.2 16-8 11.333-16.5 7-2.4 8-15 3.333-21 0-2.4 2.4-13.333 3.333-18.5 3.5-18.4-1.6-22.667-13-22.5-18.5-17.5-78.5 56-64.5 35.5-89z" fill="#000" stroke="#000"/><path id="tail" d="M9.64 192.579c-26-28.4 12.833-36.834 35.5-37.5 24-4.5 14.5 6.333 7.5 9.5l-26 4.5c-8.333 2-18.1 9.3-6.5 14.5 14.5 6.5 22 44.5-10.5 9z" fill="#000" stroke="#000"/><g id="eyes"><path id="right-eye-yellow" d="M124.079 36c-11.105 0-10.052 14.595-10.052 14.595.638 1.135 3.542 3.405 10.052 3.405 10.723-8.173 4.468-15.405 0-18z" fill="#FAD40C" stroke="#000"/><ellipse id="right-eye-black" cx="120" cy="45.5" rx="4" ry="5.5" fill="#0C0C0C"/><path id="left-eye-yellow" d="M88.184 36c11.6 0 10.5 15 10.5 15-.667 1.167-3.7 3.5-10.5 3.5-11.2-8.4-4.667-15.833 0-18.5z" fill="#FAD40C" stroke="#000"/><ellipse id="left-eye-black" cx="92" cy="45.5" rx="4" ry="5.5" fill="#0C0C0C"/></g></svg>